<?xml version="1.0" encoding="UTF-8"?>
<svg version="1.1" viewBox="0 0 2048 1637" width="729" height="583" xmlns="http://www.w3.org/2000/svg">
<path transform="translate(216,540)" d="m0 0h174l9 3 8 6 7 9 30 52 14 24 16 28 30 52 8 16 1 3v7l-7 16-15 26-12 21-11 18-6 7-9 5-9 2h-64l-7-1-8-7-4-7-1-7 4-11 10-17 15-26 14-24 16-28 14-24 8-14 2-5v-10l-4-8-6-5-3-1h-72l-10 4-6 5-9 14-16 28-14 24-12 20h-3l-13-22-10-18-28-48-16-28-14-24-9-16-4-11 1-9 5-9 8-7z" fill="#00193A"/>
<path transform="translate(132,638)" d="m0 0h70l8 4 7 8 1 3v12l-6 12-12 20-13 23-14 24-15 26-14 24-6 10-3 9 1 6 4 8 5 4 7 2h68l10-3 7-5 7-11 16-28 10-17 16-28 4-4 7 10 14 25 14 24 45 78 12 21 3 9-1 10-4 8-7 7-9 3h-177l-9-3-8-7-10-16-13-23-16-27-14-25-14-24-30-52-4-9-1-4v-12l3-9 14-24 13-23 10-17 7-9 7-6z" fill="#00193A"/>
<path transform="translate(693,603)" d="m0 0h29l21 3 17 5 16 8 12 9 10 10 8 14 4 11 2 16-1 1h-47l-4-12-5-8-1-3-4-2-9-6-11-4-10-2h-25l-14 3-10 4-10 8-5 10-1 4v10l4 9 4 5 10 6 13 5 21 5 40 8 23 7 16 8 9 6 8 7 7 10 5 12 2 9v23l-3 13-8 16-11 12-9 7-12 7-16 6-18 4-15 2h-36l-20-3-18-5-17-8-11-8-8-7-8-11-6-12-3-12-1-11h47l2 2 4 11 6 8 8 6 10 5 14 4 7 1h29l17-4 12-6 6-5 5-9 2-8v-7l-3-9-4-6-8-6-14-6-25-6-35-7-15-4-16-6-15-8-12-11-6-7-6-12-3-11-1-16 3-16 5-12 8-11 10-10 14-9 13-6 17-5z" fill="#00193A"/>
<path transform="translate(1756,607)" d="m0 0h54l2 1 13 34 18 46 19 49 16 41 19 49 11 28 3 10h-52l-4-9-11-30-9-26-1-1h-103l-15 42-8 22-2 2h-51l-1-2 11-27 15-39 20-51 19-49 16-41 18-46zm26 47-4 10-23 65-11 30v4h78l-11-33-15-42-12-33z" fill="#00193A"/>
<path transform="translate(1134,672)" d="m0 0h31l17 3 15 5 11 6 11 9 8 10 5 11 2 9 1 139-1 1h-48l-1-28-9 11-10 8-16 8-12 3-7 1h-17l-17-3-13-5-11-7-8-8-7-11-3-9-1-5v-18l4-13 7-11 9-8 12-7 15-5 16-3 22-2 37-2 9-1v-17l-3-9-4-6-8-6-9-3-7-1h-12l-15 3-10 6-6 7-3 8-2 1h-42l-2-1 3-14 4-9 7-11 10-9 11-7 19-7zm50 108-48 3-16 3-9 5-7 8-2 6v8l3 8 7 7 8 4 10 2h14l14-3 10-5 10-9 5-7 3-11v-19z" fill="#00193A"/>
<path transform="translate(1436,672)" d="m0 0h30l16 3 16 6 13 8 10 9 7 7 8 13 6 14 4 20 1 19v9l-1 1h-144l4 20 7 14 5 6 11 7 12 4 8 1h11l15-3 13-7 8-9 2-5 2-1h44l-1 7-5 12-7 10-7 8-14 10-15 7-19 5-22 2-17-1-17-3-16-6-11-6-10-8-9-9-9-14-6-14-4-17-1-8v-25l3-17 5-15 8-15 8-10 9-9 10-7 14-7 13-4zm5 35-12 4-8 5-5 4-7 10-5 13-1 8h96l-1-8-4-12-7-10-8-7-10-5-8-2z" fill="#00193A"/>
<path transform="translate(927,672)" d="m0 0h30l20 4 16 7 11 7 10 9 7 8 8 15 4 15v5l-3 1h-42l-4-9-6-10-4-5-9-6-9-3-5-1h-16l-12 3-10 6-8 8-8 16-3 11-1 8v19l3 16 5 12 7 10 10 8 10 4 16 2 14-2 9-4 6-4 8-9 4-8 2-7h46l-1 10-5 15-6 10-9 11-10 8-12 7-13 5-20 4-18 1-20-2-19-5-16-8-12-9-8-8-7-10-8-16-5-19-1-7v-30l4-20 5-13 8-13 11-13 12-9 15-8 17-5z" fill="#00193A"/>
<path transform="translate(1941,608)" d="m0 0h50v256l-1 1h-50v-256z" fill="#00193A"/>
<path transform="translate(1291,607)" d="m0 0h12l20 1v256l-1 1h-48v-257z" fill="#00193A"/>
<path transform="translate(1597,816)" d="m0 0h11l9 3 10 9 3 7 1 9-3 10-7 8-10 5h-17l-9-4-5-5-5-8-1-3v-10l4-9 5-6 9-5z" fill="#00193A"/>
</svg>
