<?xml version="1.0" encoding="UTF-8"?>
<svg version="1.1" viewBox="0 0 943 2048" width="1458" height="3164" xmlns="http://www.w3.org/2000/svg">
<path transform="translate(464,164)" d="m0 0h14l8 4 10 9 169 169 6 8 2 6v12l-4 8-5 6-10 5h-12l-7-3-6-4-131-131-2-1v298l-3 6-6 7-8 4h-15l-7-3-7-7-4-9-1-295-132 132-8 5-4 1h-13l-8-4-7-8-3-6v-14l4-8 9-10 173-173z" fill="#2A3472"/>
<path transform="translate(460,13)" d="m0 0h22l10 3 10 6 8 7 8 13 4 12v17l-4 13-6 10-7 8-11 7-8 3-4 1h-21l-10-3-9-5-10-9-6-10-5-12v-20l4-13 6-9 8-9 12-7z" fill="#2A3472"/>
</svg>
