<svg width="662" height="434" viewBox="0 0 662 434" fill="none" xmlns="http://www.w3.org/2000/svg">
<path d="M529.373 249.372C529.373 196.761 508.473 146.304 471.271 109.102C434.068 71.8999 383.612 51 331 51C278.388 51 227.932 71.8999 190.73 109.102C153.527 146.304 132.628 196.761 132.628 249.372" stroke="url(#paint0_linear_307_579)" stroke-width="10"/>
<path d="M453.162 249.373C453.162 216.973 440.291 185.901 417.381 162.991C394.472 140.081 363.399 127.211 331 127.211C298.601 127.211 267.529 140.081 244.619 162.991C221.709 185.901 208.839 216.973 208.839 249.372" stroke="url(#paint1_linear_307_579)" stroke-linecap="round" stroke-dasharray="0 1 10 0 1 10"/>
<path d="M471.094 109.102C433.911 71.8999 383.481 51 330.896 51C278.312 51 227.882 71.8999 190.699 109.102C153.517 146.304 132.628 196.761 132.628 249.372" stroke="url(#paint2_linear_307_579)" stroke-width="10"/>
<g opacity="0.4" filter="url(#filter0_d_307_579)">
<circle cx="331" cy="249.372" r="78.4524" fill="white"/>
</g>
<path d="M453.4 122.752L487.166 93.2069" stroke="white" stroke-width="5"/>
<path d="M170.614 99.5379L202.269 126.972" stroke="white" stroke-width="5"/>
<path d="M129.497 277.384C128.031 277.378 126.77 277.017 125.713 276.301C124.662 275.585 123.852 274.548 123.284 273.19C122.721 271.832 122.443 270.199 122.449 268.29C122.449 266.386 122.73 264.764 123.292 263.423C123.86 262.082 124.67 261.062 125.721 260.364C126.778 259.659 128.037 259.307 129.497 259.307C130.957 259.307 132.213 259.659 133.264 260.364C134.321 261.068 135.133 262.091 135.701 263.432C136.27 264.767 136.551 266.386 136.545 268.29C136.545 270.205 136.261 271.841 135.693 273.199C135.13 274.557 134.324 275.594 133.272 276.31C132.221 277.026 130.963 277.384 129.497 277.384ZM129.497 274.324C130.497 274.324 131.295 273.821 131.892 272.815C132.488 271.81 132.784 270.301 132.778 268.29C132.778 266.966 132.642 265.864 132.369 264.983C132.102 264.102 131.721 263.44 131.227 262.997C130.738 262.554 130.162 262.332 129.497 262.332C128.502 262.332 127.707 262.83 127.11 263.824C126.514 264.818 126.213 266.307 126.207 268.29C126.207 269.631 126.341 270.75 126.608 271.648C126.88 272.54 127.264 273.21 127.758 273.659C128.252 274.102 128.832 274.324 129.497 274.324Z" fill="#F52F62"/>
<path d="M44.7241 243V225.545H51.6104C52.9343 225.545 54.0621 225.798 54.994 226.304C55.9258 226.804 56.636 227.5 57.1246 228.392C57.619 229.278 57.8661 230.301 57.8661 231.46C57.8661 232.619 57.6161 233.642 57.1161 234.528C56.6161 235.415 55.8917 236.105 54.9428 236.599C53.9996 237.094 52.8576 237.341 51.5167 237.341H47.1275V234.384H50.9201C51.6303 234.384 52.2156 234.261 52.6758 234.017C53.1417 233.767 53.4883 233.423 53.7156 232.986C53.9485 232.543 54.065 232.034 54.065 231.46C54.065 230.881 53.9485 230.375 53.7156 229.943C53.4883 229.506 53.1417 229.168 52.6758 228.929C52.2099 228.685 51.619 228.562 50.9031 228.562H48.4144V243H44.7241ZM65.8988 243.256C64.5749 243.256 63.43 242.974 62.4641 242.412C61.5039 241.844 60.7624 241.054 60.2397 240.043C59.717 239.026 59.4556 237.847 59.4556 236.506C59.4556 235.153 59.717 233.972 60.2397 232.96C60.7624 231.943 61.5039 231.153 62.4641 230.591C63.43 230.023 64.5749 229.739 65.8988 229.739C67.2227 229.739 68.3647 230.023 69.3249 230.591C70.2908 231.153 71.0352 231.943 71.5579 232.96C72.0806 233.972 72.342 235.153 72.342 236.506C72.342 237.847 72.0806 239.026 71.5579 240.043C71.0352 241.054 70.2908 241.844 69.3249 242.412C68.3647 242.974 67.2227 243.256 65.8988 243.256ZM65.9158 240.443C66.5181 240.443 67.021 240.273 67.4244 239.932C67.8278 239.585 68.1317 239.114 68.3363 238.517C68.5465 237.92 68.6516 237.241 68.6516 236.48C68.6516 235.719 68.5465 235.04 68.3363 234.443C68.1317 233.847 67.8278 233.375 67.4244 233.028C67.021 232.682 66.5181 232.509 65.9158 232.509C65.3079 232.509 64.7965 232.682 64.3817 233.028C63.9727 233.375 63.663 233.847 63.4528 234.443C63.2482 235.04 63.146 235.719 63.146 236.48C63.146 237.241 63.2482 237.92 63.4528 238.517C63.663 239.114 63.9727 239.585 64.3817 239.932C64.7965 240.273 65.3079 240.443 65.9158 240.443ZM80.6175 243.256C79.2937 243.256 78.1488 242.974 77.1829 242.412C76.2227 241.844 75.4812 241.054 74.9585 240.043C74.4357 239.026 74.1744 237.847 74.1744 236.506C74.1744 235.153 74.4357 233.972 74.9585 232.96C75.4812 231.943 76.2227 231.153 77.1829 230.591C78.1488 230.023 79.2937 229.739 80.6175 229.739C81.9414 229.739 83.0835 230.023 84.0437 230.591C85.0096 231.153 85.7539 231.943 86.2766 232.96C86.7994 233.972 87.0607 235.153 87.0607 236.506C87.0607 237.847 86.7994 239.026 86.2766 240.043C85.7539 241.054 85.0096 241.844 84.0437 242.412C83.0835 242.974 81.9414 243.256 80.6175 243.256ZM80.6346 240.443C81.2369 240.443 81.7397 240.273 82.1431 239.932C82.5465 239.585 82.8505 239.114 83.055 238.517C83.2653 237.92 83.3704 237.241 83.3704 236.48C83.3704 235.719 83.2653 235.04 83.055 234.443C82.8505 233.847 82.5465 233.375 82.1431 233.028C81.7397 232.682 81.2369 232.509 80.6346 232.509C80.0266 232.509 79.5153 232.682 79.1005 233.028C78.6914 233.375 78.3817 233.847 78.1715 234.443C77.967 235.04 77.8647 235.719 77.8647 236.48C77.8647 237.241 77.967 237.92 78.1715 238.517C78.3817 239.114 78.6914 239.585 79.1005 239.932C79.5153 240.273 80.0266 240.443 80.6346 240.443ZM89.4215 243V229.909H92.9414V232.193H93.0778C93.3164 231.381 93.717 230.767 94.2795 230.352C94.842 229.932 95.4897 229.722 96.2227 229.722C96.4045 229.722 96.6005 229.733 96.8107 229.756C97.021 229.778 97.2056 229.81 97.3647 229.849V233.071C97.1942 233.02 96.9585 232.974 96.6573 232.935C96.3562 232.895 96.0806 232.875 95.8306 232.875C95.2965 232.875 94.8192 232.991 94.3988 233.224C93.984 233.452 93.6545 233.77 93.4102 234.179C93.1715 234.588 93.0522 235.06 93.0522 235.594V243H89.4215Z" fill="#F52F62"/>
<path d="M583.114 231.188C582.995 230.773 582.827 230.406 582.612 230.088C582.396 229.764 582.131 229.491 581.819 229.27C581.512 229.043 581.16 228.869 580.762 228.75C580.37 228.631 579.935 228.571 579.458 228.571C578.566 228.571 577.782 228.793 577.106 229.236C576.435 229.679 575.913 230.324 575.538 231.17C575.163 232.011 574.975 233.04 574.975 234.256C574.975 235.472 575.16 236.506 575.529 237.358C575.898 238.21 576.421 238.861 577.097 239.31C577.773 239.753 578.572 239.974 579.492 239.974C580.327 239.974 581.04 239.827 581.631 239.531C582.228 239.23 582.683 238.807 582.995 238.261C583.313 237.716 583.472 237.071 583.472 236.327L584.222 236.438H579.722V233.659H587.026V235.858C587.026 237.392 586.702 238.71 586.055 239.812C585.407 240.909 584.515 241.756 583.379 242.352C582.242 242.943 580.941 243.239 579.475 243.239C577.839 243.239 576.401 242.878 575.163 242.156C573.924 241.429 572.958 240.398 572.265 239.062C571.577 237.722 571.234 236.131 571.234 234.29C571.234 232.875 571.438 231.614 571.847 230.506C572.262 229.392 572.842 228.449 573.586 227.676C574.33 226.903 575.197 226.315 576.185 225.912C577.174 225.509 578.245 225.307 579.398 225.307C580.387 225.307 581.308 225.452 582.16 225.741C583.012 226.026 583.768 226.429 584.427 226.952C585.092 227.474 585.634 228.097 586.055 228.818C586.475 229.534 586.745 230.324 586.864 231.188H583.114ZM595.645 243.256C594.321 243.256 593.176 242.974 592.21 242.412C591.25 241.844 590.509 241.054 589.986 240.043C589.463 239.026 589.202 237.847 589.202 236.506C589.202 235.153 589.463 233.972 589.986 232.96C590.509 231.943 591.25 231.153 592.21 230.591C593.176 230.023 594.321 229.739 595.645 229.739C596.969 229.739 598.111 230.023 599.071 230.591C600.037 231.153 600.781 231.943 601.304 232.96C601.827 233.972 602.088 235.153 602.088 236.506C602.088 237.847 601.827 239.026 601.304 240.043C600.781 241.054 600.037 241.844 599.071 242.412C598.111 242.974 596.969 243.256 595.645 243.256ZM595.662 240.443C596.264 240.443 596.767 240.273 597.17 239.932C597.574 239.585 597.878 239.114 598.082 238.517C598.293 237.92 598.398 237.241 598.398 236.48C598.398 235.719 598.293 235.04 598.082 234.443C597.878 233.847 597.574 233.375 597.17 233.028C596.767 232.682 596.264 232.509 595.662 232.509C595.054 232.509 594.543 232.682 594.128 233.028C593.719 233.375 593.409 233.847 593.199 234.443C592.994 235.04 592.892 235.719 592.892 236.48C592.892 237.241 592.994 237.92 593.199 238.517C593.409 239.114 593.719 239.585 594.128 239.932C594.543 240.273 595.054 240.443 595.662 240.443ZM610.364 243.256C609.04 243.256 607.895 242.974 606.929 242.412C605.969 241.844 605.227 241.054 604.705 240.043C604.182 239.026 603.92 237.847 603.92 236.506C603.92 235.153 604.182 233.972 604.705 232.96C605.227 231.943 605.969 231.153 606.929 230.591C607.895 230.023 609.04 229.739 610.364 229.739C611.688 229.739 612.83 230.023 613.79 230.591C614.756 231.153 615.5 231.943 616.023 232.96C616.545 233.972 616.807 235.153 616.807 236.506C616.807 237.847 616.545 239.026 616.023 240.043C615.5 241.054 614.756 241.844 613.79 242.412C612.83 242.974 611.688 243.256 610.364 243.256ZM610.381 240.443C610.983 240.443 611.486 240.273 611.889 239.932C612.293 239.585 612.597 239.114 612.801 238.517C613.011 237.92 613.116 237.241 613.116 236.48C613.116 235.719 613.011 235.04 612.801 234.443C612.597 233.847 612.293 233.375 611.889 233.028C611.486 232.682 610.983 232.509 610.381 232.509C609.773 232.509 609.261 232.682 608.847 233.028C608.438 233.375 608.128 233.847 607.918 234.443C607.713 235.04 607.611 235.719 607.611 236.48C607.611 237.241 607.713 237.92 607.918 238.517C608.128 239.114 608.438 239.585 608.847 239.932C609.261 240.273 609.773 240.443 610.381 240.443ZM623.991 243.213C622.997 243.213 622.097 242.957 621.29 242.446C620.489 241.929 619.852 241.17 619.381 240.17C618.915 239.165 618.682 237.932 618.682 236.472C618.682 234.972 618.923 233.724 619.406 232.73C619.889 231.73 620.531 230.983 621.332 230.489C622.139 229.989 623.023 229.739 623.983 229.739C624.716 229.739 625.327 229.864 625.815 230.114C626.31 230.358 626.707 230.665 627.009 231.034C627.315 231.398 627.548 231.756 627.707 232.108H627.818V225.545H631.44V243H627.861V240.903H627.707C627.537 241.267 627.295 241.628 626.983 241.986C626.676 242.338 626.276 242.631 625.781 242.864C625.293 243.097 624.696 243.213 623.991 243.213ZM625.142 240.324C625.727 240.324 626.222 240.165 626.625 239.847C627.034 239.523 627.347 239.071 627.562 238.491C627.784 237.912 627.895 237.233 627.895 236.455C627.895 235.676 627.787 235 627.571 234.426C627.355 233.852 627.043 233.409 626.634 233.097C626.224 232.784 625.727 232.628 625.142 232.628C624.545 232.628 624.043 232.79 623.634 233.114C623.224 233.437 622.915 233.886 622.705 234.46C622.494 235.034 622.389 235.699 622.389 236.455C622.389 237.216 622.494 237.889 622.705 238.474C622.92 239.054 623.23 239.509 623.634 239.838C624.043 240.162 624.545 240.324 625.142 240.324Z" fill="#48E194"/>
<path d="M304.038 10.5455V28H300.851L293.257 17.0142H293.129V28H289.439V10.5455H292.678L300.212 21.5227H300.365V10.5455H304.038ZM312.985 28.2557C311.638 28.2557 310.479 27.983 309.508 27.4375C308.542 26.8864 307.798 26.108 307.275 25.1023C306.752 24.0909 306.491 22.8949 306.491 21.5142C306.491 20.1676 306.752 18.9858 307.275 17.9688C307.798 16.9517 308.533 16.1591 309.482 15.5909C310.437 15.0227 311.556 14.7386 312.84 14.7386C313.704 14.7386 314.508 14.8778 315.252 15.1562C316.002 15.429 316.656 15.8409 317.212 16.392C317.775 16.9432 318.212 17.6364 318.525 18.4716C318.837 19.3011 318.994 20.2727 318.994 21.3864V22.3835H307.94V20.1335H315.576C315.576 19.6108 315.462 19.1477 315.235 18.7443C315.008 18.3409 314.692 18.0256 314.289 17.7983C313.891 17.5653 313.428 17.4489 312.9 17.4489C312.349 17.4489 311.86 17.5767 311.434 17.8324C311.013 18.0824 310.684 18.4205 310.445 18.8466C310.207 19.267 310.085 19.7358 310.079 20.2528V22.392C310.079 23.0398 310.198 23.5994 310.437 24.071C310.681 24.5426 311.025 24.9062 311.468 25.1619C311.911 25.4176 312.437 25.5455 313.045 25.5455C313.448 25.5455 313.817 25.4886 314.153 25.375C314.488 25.2614 314.775 25.0909 315.013 24.8636C315.252 24.6364 315.434 24.358 315.559 24.0284L318.917 24.25C318.746 25.0568 318.397 25.7614 317.869 26.3636C317.346 26.9602 316.67 27.4261 315.84 27.7614C315.016 28.0909 314.065 28.2557 312.985 28.2557ZM329.758 22.4261V14.9091H333.388V28H329.903V25.6222H329.766C329.471 26.3892 328.979 27.0057 328.292 27.4716C327.61 27.9375 326.778 28.1705 325.795 28.1705C324.92 28.1705 324.15 27.9716 323.485 27.5739C322.82 27.1761 322.3 26.6108 321.925 25.8778C321.556 25.1449 321.369 24.267 321.363 23.2443V14.9091H324.994V22.5966C324.999 23.3693 325.207 23.9801 325.616 24.429C326.025 24.8778 326.573 25.1023 327.261 25.1023C327.698 25.1023 328.107 25.0028 328.488 24.804C328.869 24.5994 329.175 24.2983 329.408 23.9006C329.647 23.5028 329.763 23.0114 329.758 22.4261ZM343.256 14.9091V17.6364H335.372V14.9091H343.256ZM337.162 11.7727H340.793V23.9773C340.793 24.3125 340.844 24.5739 340.946 24.7614C341.048 24.9432 341.19 25.071 341.372 25.1449C341.56 25.2187 341.776 25.2557 342.02 25.2557C342.19 25.2557 342.361 25.2415 342.531 25.2131C342.702 25.179 342.832 25.1534 342.923 25.1364L343.494 27.8381C343.313 27.8949 343.057 27.9602 342.727 28.0341C342.398 28.1136 341.997 28.1619 341.526 28.179C340.651 28.2131 339.884 28.0966 339.224 27.8295C338.571 27.5625 338.063 27.1477 337.699 26.5852C337.335 26.0227 337.156 25.3125 337.162 24.4545V11.7727ZM345.621 28V14.9091H349.141V17.1932H349.277C349.516 16.3807 349.916 15.767 350.479 15.3523C351.041 14.9318 351.689 14.7216 352.422 14.7216C352.604 14.7216 352.8 14.733 353.01 14.7557C353.22 14.7784 353.405 14.8097 353.564 14.8494V18.071C353.393 18.0199 353.158 17.9744 352.857 17.9347C352.555 17.8949 352.28 17.875 352.03 17.875C351.496 17.875 351.018 17.9915 350.598 18.2244C350.183 18.4517 349.854 18.7699 349.609 19.179C349.371 19.5881 349.251 20.0597 349.251 20.5938V28H345.621ZM358.799 28.2472C357.964 28.2472 357.219 28.1023 356.566 27.8125C355.913 27.517 355.396 27.0824 355.015 26.5085C354.64 25.929 354.452 25.2074 354.452 24.3438C354.452 23.6165 354.586 23.0057 354.853 22.5114C355.12 22.017 355.484 21.6193 355.944 21.3182C356.404 21.017 356.927 20.7898 357.512 20.6364C358.103 20.483 358.722 20.375 359.37 20.3125C360.131 20.233 360.745 20.1591 361.211 20.0909C361.677 20.017 362.015 19.9091 362.225 19.767C362.435 19.625 362.54 19.4148 362.54 19.1364V19.0852C362.54 18.5455 362.37 18.1278 362.029 17.8324C361.694 17.5369 361.217 17.3892 360.597 17.3892C359.944 17.3892 359.424 17.5341 359.038 17.8239C358.651 18.108 358.396 18.4659 358.271 18.8977L354.913 18.625C355.083 17.8295 355.418 17.142 355.918 16.5625C356.418 15.9773 357.063 15.5284 357.853 15.2159C358.648 14.8977 359.569 14.7386 360.614 14.7386C361.342 14.7386 362.038 14.8239 362.702 14.9943C363.373 15.1648 363.967 15.429 364.484 15.7869C365.006 16.1449 365.418 16.6051 365.719 17.1676C366.021 17.7244 366.171 18.392 366.171 19.1705V28H362.728V26.1847H362.626C362.415 26.5938 362.134 26.9545 361.782 27.267C361.43 27.5739 361.006 27.8153 360.512 27.9915C360.018 28.1619 359.447 28.2472 358.799 28.2472ZM359.839 25.7415C360.373 25.7415 360.844 25.6364 361.254 25.4261C361.663 25.2102 361.984 24.9205 362.217 24.5568C362.45 24.1932 362.566 23.7812 362.566 23.321V21.9318C362.452 22.0057 362.296 22.0739 362.097 22.1364C361.904 22.1932 361.685 22.2472 361.441 22.2983C361.197 22.3437 360.952 22.3864 360.708 22.4261C360.464 22.4602 360.242 22.4915 360.043 22.5199C359.617 22.5824 359.245 22.6818 358.927 22.8182C358.609 22.9545 358.362 23.1392 358.185 23.3722C358.009 23.5994 357.921 23.8835 357.921 24.2244C357.921 24.7188 358.1 25.0966 358.458 25.358C358.822 25.6136 359.282 25.7415 359.839 25.7415ZM372.619 10.5455V28H368.988V10.5455H372.619Z" fill="#4AA9F2"/>
<path d="M516.114 259.545V277H512.424V263.048H512.321L508.324 265.554V262.281L512.645 259.545H516.114ZM527.106 277.384C525.64 277.378 524.379 277.017 523.322 276.301C522.271 275.585 521.461 274.548 520.893 273.19C520.331 271.832 520.052 270.199 520.058 268.29C520.058 266.386 520.339 264.764 520.902 263.423C521.47 262.082 522.279 261.062 523.331 260.364C524.387 259.659 525.646 259.307 527.106 259.307C528.566 259.307 529.822 259.659 530.873 260.364C531.93 261.068 532.743 262.091 533.311 263.432C533.879 264.767 534.16 266.386 534.154 268.29C534.154 270.205 533.87 271.841 533.302 273.199C532.74 274.557 531.933 275.594 530.882 276.31C529.831 277.026 528.572 277.384 527.106 277.384ZM527.106 274.324C528.106 274.324 528.904 273.821 529.501 272.815C530.098 271.81 530.393 270.301 530.387 268.29C530.387 266.966 530.251 265.864 529.978 264.983C529.711 264.102 529.331 263.44 528.836 262.997C528.348 262.554 527.771 262.332 527.106 262.332C526.112 262.332 525.316 262.83 524.72 263.824C524.123 264.818 523.822 266.307 523.816 268.29C523.816 269.631 523.95 270.75 524.217 271.648C524.49 272.54 524.873 273.21 525.368 273.659C525.862 274.102 526.441 274.324 527.106 274.324ZM543.63 277.384C542.164 277.378 540.902 277.017 539.846 276.301C538.794 275.585 537.985 274.548 537.417 273.19C536.854 271.832 536.576 270.199 536.581 268.29C536.581 266.386 536.863 264.764 537.425 263.423C537.993 262.082 538.803 261.062 539.854 260.364C540.911 259.659 542.169 259.307 543.63 259.307C545.09 259.307 546.346 259.659 547.397 260.364C548.453 261.068 549.266 262.091 549.834 263.432C550.402 264.767 550.684 266.386 550.678 268.29C550.678 270.205 550.394 271.841 549.826 273.199C549.263 274.557 548.456 275.594 547.405 276.31C546.354 277.026 545.096 277.384 543.63 277.384ZM543.63 274.324C544.63 274.324 545.428 273.821 546.025 272.815C546.621 271.81 546.917 270.301 546.911 268.29C546.911 266.966 546.775 265.864 546.502 264.983C546.235 264.102 545.854 263.44 545.36 262.997C544.871 262.554 544.294 262.332 543.63 262.332C542.635 262.332 541.84 262.83 541.243 263.824C540.647 264.818 540.346 266.307 540.34 268.29C540.34 269.631 540.473 270.75 540.74 271.648C541.013 272.54 541.397 273.21 541.891 273.659C542.385 274.102 542.965 274.324 543.63 274.324Z" fill="#48E194"/>
<defs>
<filter id="filter0_d_307_579" x="227.548" y="150.92" width="206.905" height="206.905" filterUnits="userSpaceOnUse" color-interpolation-filters="sRGB">
<feFlood flood-opacity="0" result="BackgroundImageFix"/>
<feColorMatrix in="SourceAlpha" type="matrix" values="0 0 0 0 0 0 0 0 0 0 0 0 0 0 0 0 0 0 127 0" result="hardAlpha"/>
<feOffset dy="5"/>
<feGaussianBlur stdDeviation="12.5"/>
<feColorMatrix type="matrix" values="0 0 0 0 0 0 0 0 0 0 0 0 0 0 0 0 0 0 0.1 0"/>
<feBlend mode="normal" in2="BackgroundImageFix" result="effect1_dropShadow_307_579"/>
<feBlend mode="normal" in="SourceGraphic" in2="effect1_dropShadow_307_579" result="shape"/>
</filter>
<linearGradient id="paint0_linear_307_579" x1="384.886" y1="-86.3803" x2="331" y2="249.372" gradientUnits="userSpaceOnUse">
<stop offset="0.178125" stop-color="#4BB7DC"/>
<stop offset="1" stop-color="#48E194"/>
</linearGradient>
<linearGradient id="paint1_linear_307_579" x1="331" y1="127.211" x2="331" y2="249.373" gradientUnits="userSpaceOnUse">
<stop stop-color="#002147"/>
<stop offset="1" stop-color="#002147"/>
</linearGradient>
<linearGradient id="paint2_linear_307_579" x1="113.086" y1="222.133" x2="429.89" y2="107.255" gradientUnits="userSpaceOnUse">
<stop stop-color="#F52F62"/>
<stop offset="1" stop-color="#4AA9F2"/>
</linearGradient>
</defs>
</svg>
